<svg width="512" height="512" viewBox="0 0 512 512" fill="none" xmlns="http://www.w3.org/2000/svg">
  <defs>
    <linearGradient id="shieldGrad" x1="256" y1="20" x2="256" y2="492" gradientUnits="userSpaceOnUse">
      <stop offset="0%" stop-color="#3B82F6" />
      <stop offset="100%" stop-color="#1E40AF" />
    </linearGradient>
    <filter id="shadow" x="-20%" y="-20%" width="140%" height="140%">
      <feDropShadow dx="0" dy="10" stdDeviation="10" flood-opacity="0.3" />
    </filter>
  </defs>

  <!-- Shield Base -->
  <path d="M256 30 L430 100 V250 C430 380 256 480 256 480 C256 480 82 380 82 250 V100 L256 30 Z"
        fill="url(#shieldGrad)" stroke="#1E3A8A" stroke-width="15" filter="url(#shadow)" />

  <!-- Leaf Symbol (Health) -->
  <path d="M256 130 C256 130 180 180 180 280 C180 340 220 380 256 380 C292 380 332 340 332 280 C332 180 256 130 256 130 Z"
        fill="#10B981" stroke="#065F46" stroke-width="8" />
  <path d="M256 380 V180" stroke="#065F46" stroke-width="8" stroke-linecap="round" />
  <path d="M256 260 L300 230" stroke="#065F46" stroke-width="8" stroke-linecap="round" />
  <path d="M256 320 L220 290" stroke="#065F46" stroke-width="8" stroke-linecap="round" />

  <!-- Shine -->
  <path d="M256 50 L410 110 V250 C410 300 350 380 256 460" stroke="white" stroke-width="10" stroke-opacity="0.2" fill="none" />
</svg>
